<mxfile host="app.diagrams.net" modified="2020-11-03T05:35:29.816Z" agent="5.0 (Windows NT 6.1; Win64; x64) AppleWebKit/537.36 (KHTML, like Gecko) Chrome/86.0.4240.111 Safari/537.36" etag="8STSUmbcBkaf7DYMH0Jd" version="13.8.8" type="github">
  <diagram id="MgBuOw0WOc42pCGKtrfE" name="Page-1">
    <mxGraphModel dx="1610" dy="423" grid="1" gridSize="10" guides="1" tooltips="1" connect="1" arrows="1" fold="1" page="1" pageScale="1" pageWidth="850" pageHeight="1100" math="0" shadow="0">
      <root>
        <mxCell id="0" />
        <mxCell id="1" parent="0" />
        <mxCell id="NNWJHJiZfU_zA2rNW4Zj-2" value="&lt;font style=&quot;font-size: 20px&quot;&gt;Types of Programming Languages&lt;/font&gt;" style="ellipse;whiteSpace=wrap;html=1;strokeWidth=3;" parent="1" vertex="1">
          <mxGeometry x="315" y="460" width="220" height="140" as="geometry" />
        </mxCell>
        <mxCell id="NNWJHJiZfU_zA2rNW4Zj-3" value="" style="endArrow=classic;html=1;exitX=1;exitY=0.5;exitDx=0;exitDy=0;strokeWidth=3;" parent="1" source="NNWJHJiZfU_zA2rNW4Zj-2" edge="1">
          <mxGeometry width="50" height="50" relative="1" as="geometry">
            <mxPoint x="630" y="790" as="sourcePoint" />
            <mxPoint x="690" y="530" as="targetPoint" />
          </mxGeometry>
        </mxCell>
        <mxCell id="NNWJHJiZfU_zA2rNW4Zj-4" value="" style="endArrow=classic;html=1;exitX=0;exitY=0.5;exitDx=0;exitDy=0;strokeWidth=3;" parent="1" source="NNWJHJiZfU_zA2rNW4Zj-2" edge="1">
          <mxGeometry width="50" height="50" relative="1" as="geometry">
            <mxPoint x="140" y="660" as="sourcePoint" />
            <mxPoint x="240" y="530" as="targetPoint" />
          </mxGeometry>
        </mxCell>
        <mxCell id="NNWJHJiZfU_zA2rNW4Zj-5" value="&lt;font style=&quot;font-size: 20px&quot;&gt;Low-Level Languages&lt;br&gt;(These are languages which are difficult to learn)&lt;/font&gt;" style="rounded=1;whiteSpace=wrap;html=1;strokeWidth=3;" parent="1" vertex="1">
          <mxGeometry x="690" y="470" width="210" height="107.5" as="geometry" />
        </mxCell>
        <mxCell id="NNWJHJiZfU_zA2rNW4Zj-6" value="&lt;font style=&quot;font-size: 20px&quot;&gt;High-Level Languages&lt;br&gt;(&lt;/font&gt;&lt;span style=&quot;font-size: 20px&quot;&gt;These languages are more human friendly and near to Human Language.&lt;/span&gt;&lt;div style=&quot;font-size: 20px&quot;&gt;So this can be easily learnt by human. Nowadays all language are of this type)&lt;/div&gt;" style="rounded=1;whiteSpace=wrap;html=1;strokeWidth=3;" parent="1" vertex="1">
          <mxGeometry x="-30" y="430" width="270" height="200" as="geometry" />
        </mxCell>
        <mxCell id="NNWJHJiZfU_zA2rNW4Zj-7" value="" style="endArrow=classic;html=1;exitX=0;exitY=0.5;exitDx=0;exitDy=0;strokeWidth=3;" parent="1" source="NNWJHJiZfU_zA2rNW4Zj-6" edge="1">
          <mxGeometry width="50" height="50" relative="1" as="geometry">
            <mxPoint x="110" y="670" as="sourcePoint" />
            <mxPoint x="-200" y="390" as="targetPoint" />
          </mxGeometry>
        </mxCell>
        <mxCell id="NNWJHJiZfU_zA2rNW4Zj-8" value="" style="endArrow=classic;html=1;exitX=0;exitY=0.5;exitDx=0;exitDy=0;strokeWidth=3;" parent="1" source="NNWJHJiZfU_zA2rNW4Zj-6" edge="1">
          <mxGeometry width="50" height="50" relative="1" as="geometry">
            <mxPoint x="40" y="530" as="sourcePoint" />
            <mxPoint x="-200" y="680" as="targetPoint" />
          </mxGeometry>
        </mxCell>
        <mxCell id="NNWJHJiZfU_zA2rNW4Zj-9" value="&lt;div style=&quot;font-size: 20px&quot;&gt;&lt;font style=&quot;font-size: 20px&quot;&gt;Binary Language&lt;/font&gt;&lt;/div&gt;&lt;div style=&quot;font-size: 20px&quot;&gt;&lt;font style=&quot;font-size: 20px&quot;&gt;&lt;span&gt;&lt;/span&gt;(This language can only be understood by computer.&lt;/font&gt;&lt;/div&gt;&lt;div style=&quot;font-size: 20px&quot;&gt;&lt;font style=&quot;font-size: 20px&quot;&gt;It is&amp;nbsp;&lt;/font&gt;&lt;span&gt;very difficult for human to read this language.&lt;/span&gt;&lt;/div&gt;&lt;div style=&quot;font-size: 20px&quot;&gt;&lt;font style=&quot;font-size: 20px&quot;&gt;&lt;span&gt;		&lt;/span&gt;This consists only of 0,1.&lt;/font&gt;&lt;/div&gt;&lt;div style=&quot;font-size: 20px&quot;&gt;&lt;font style=&quot;font-size: 20px&quot;&gt;&lt;span&gt;		&lt;/span&gt;Machine code is the base level form of instructions&lt;/font&gt;&lt;/div&gt;&lt;div style=&quot;font-size: 20px&quot;&gt;&lt;font style=&quot;font-size: 20px&quot;&gt;		that can be directly executed by the CPU.)&amp;nbsp;&lt;/font&gt;&lt;/div&gt;" style="rounded=1;whiteSpace=wrap;html=1;strokeWidth=3;" parent="1" vertex="1">
          <mxGeometry x="1050" y="260" width="410" height="240" as="geometry" />
        </mxCell>
        <mxCell id="NNWJHJiZfU_zA2rNW4Zj-10" value="&lt;div&gt;&lt;font style=&quot;font-size: 20px&quot;&gt;Assembly L&lt;/font&gt;&lt;font style=&quot;font-size: 20px&quot;&gt;anguage&lt;/font&gt;&lt;/div&gt;&lt;div style=&quot;font-size: 20px&quot;&gt;&lt;font style=&quot;font-size: 20px&quot;&gt;(This language one step easier to understand then binary language&lt;/font&gt;&lt;/div&gt;&lt;div style=&quot;font-size: 20px&quot;&gt;&lt;span&gt;		&lt;/span&gt;but this language is also very difficult and we may struck in errors)&lt;/div&gt;&lt;div&gt;&lt;br&gt;&lt;/div&gt;" style="rounded=1;whiteSpace=wrap;html=1;strokeWidth=3;" parent="1" vertex="1">
          <mxGeometry x="1050" y="577.5" width="370" height="200" as="geometry" />
        </mxCell>
        <mxCell id="NNWJHJiZfU_zA2rNW4Zj-12" value="" style="endArrow=classic;html=1;exitX=1;exitY=0.5;exitDx=0;exitDy=0;strokeWidth=3;" parent="1" source="NNWJHJiZfU_zA2rNW4Zj-5" edge="1">
          <mxGeometry width="50" height="50" relative="1" as="geometry">
            <mxPoint x="290" y="280" as="sourcePoint" />
            <mxPoint x="1050" y="410" as="targetPoint" />
          </mxGeometry>
        </mxCell>
        <mxCell id="NNWJHJiZfU_zA2rNW4Zj-13" value="" style="endArrow=classic;html=1;strokeWidth=3;" parent="1" edge="1">
          <mxGeometry width="50" height="50" relative="1" as="geometry">
            <mxPoint x="900" y="530" as="sourcePoint" />
            <mxPoint x="1050" y="650" as="targetPoint" />
          </mxGeometry>
        </mxCell>
        <mxCell id="NNWJHJiZfU_zA2rNW4Zj-14" value="&lt;font style=&quot;font-size: 20px&quot;&gt;Python&amp;nbsp;&lt;/font&gt;&lt;br&gt;&lt;font style=&quot;font-size: 20px&quot;&gt;(This is a &lt;font style=&quot;font-size: 20px&quot;&gt;High&lt;/font&gt;-Level Language)&lt;/font&gt;" style="rounded=1;whiteSpace=wrap;html=1;strokeWidth=3;" parent="1" vertex="1">
          <mxGeometry x="-350" y="340" width="150" height="100" as="geometry" />
        </mxCell>
        <mxCell id="NNWJHJiZfU_zA2rNW4Zj-15" value="&lt;font style=&quot;font-size: 20px&quot;&gt;Java&amp;nbsp;&lt;/font&gt;&lt;br&gt;&lt;font style=&quot;font-size: 20px&quot;&gt;(This is a &lt;font style=&quot;font-size: 20px&quot;&gt;High&lt;/font&gt;-Level Language)&lt;/font&gt;" style="rounded=1;whiteSpace=wrap;html=1;strokeWidth=3;" parent="1" vertex="1">
          <mxGeometry x="-350" y="650" width="150" height="100" as="geometry" />
        </mxCell>
        <mxCell id="NNWJHJiZfU_zA2rNW4Zj-16" value="" style="endArrow=classic;html=1;exitX=1;exitY=0.5;exitDx=0;exitDy=0;strokeWidth=3;" parent="1" source="NNWJHJiZfU_zA2rNW4Zj-10" edge="1">
          <mxGeometry width="50" height="50" relative="1" as="geometry">
            <mxPoint x="1470" y="690" as="sourcePoint" />
            <mxPoint x="1640" y="720" as="targetPoint" />
          </mxGeometry>
        </mxCell>
        <mxCell id="NNWJHJiZfU_zA2rNW4Zj-17" value="&lt;span style=&quot;font-size: 20px&quot;&gt;The Computer only understands Binary language So We need Converters&lt;/span&gt;" style="text;html=1;strokeColor=none;fillColor=none;align=center;verticalAlign=middle;whiteSpace=wrap;rounded=0;" parent="1" vertex="1">
          <mxGeometry x="1420" y="700" width="190" height="130" as="geometry" />
        </mxCell>
        <mxCell id="NNWJHJiZfU_zA2rNW4Zj-19" value="" style="endArrow=classic;html=1;strokeWidth=3;" parent="1" edge="1">
          <mxGeometry width="50" height="50" relative="1" as="geometry">
            <mxPoint x="1515" y="700" as="sourcePoint" />
            <mxPoint x="1515" y="720" as="targetPoint" />
          </mxGeometry>
        </mxCell>
        <mxCell id="NNWJHJiZfU_zA2rNW4Zj-20" value="&lt;font style=&quot;font-size: 20px&quot;&gt;Assembler&lt;br&gt;(Converter for Assembly Language)&lt;/font&gt;" style="rounded=1;whiteSpace=wrap;html=1;strokeWidth=3;" parent="1" vertex="1">
          <mxGeometry x="1640" y="675" width="230" height="102.5" as="geometry" />
        </mxCell>
        <mxCell id="NNWJHJiZfU_zA2rNW4Zj-21" value="" style="endArrow=classic;html=1;exitX=0;exitY=0.5;exitDx=0;exitDy=0;strokeWidth=3;" parent="1" source="NNWJHJiZfU_zA2rNW4Zj-14" edge="1">
          <mxGeometry width="50" height="50" relative="1" as="geometry">
            <mxPoint x="-530" y="460" as="sourcePoint" />
            <mxPoint x="-470" y="390" as="targetPoint" />
          </mxGeometry>
        </mxCell>
        <mxCell id="NNWJHJiZfU_zA2rNW4Zj-22" value="&lt;font style=&quot;font-size: 20px&quot;&gt;Interpreter&lt;br&gt;(This reads program line by line and gives output(This is somewhat slow). )&lt;/font&gt;" style="rounded=1;whiteSpace=wrap;html=1;strokeWidth=3;" parent="1" vertex="1">
          <mxGeometry x="-740" y="325" width="270" height="130" as="geometry" />
        </mxCell>
        <mxCell id="NNWJHJiZfU_zA2rNW4Zj-23" value="" style="endArrow=classic;html=1;exitX=0;exitY=0.5;exitDx=0;exitDy=0;strokeWidth=3;" parent="1" source="NNWJHJiZfU_zA2rNW4Zj-15" edge="1">
          <mxGeometry width="50" height="50" relative="1" as="geometry">
            <mxPoint x="-500" y="720" as="sourcePoint" />
            <mxPoint x="-450" y="700" as="targetPoint" />
          </mxGeometry>
        </mxCell>
        <mxCell id="NNWJHJiZfU_zA2rNW4Zj-24" value="&lt;div style=&quot;font-size: 20px&quot;&gt;&lt;font style=&quot;font-size: 20px&quot;&gt;Compiler&lt;/font&gt;&lt;/div&gt;&lt;div style=&quot;font-size: 20px&quot;&gt;&lt;font style=&quot;font-size: 20px&quot;&gt;(This reads the program at once and gives output instantly (This is fast). )&lt;/font&gt;&lt;/div&gt;&lt;div style=&quot;font-size: 20px&quot;&gt;&lt;br&gt;&lt;/div&gt;" style="rounded=1;whiteSpace=wrap;html=1;strokeWidth=3;" parent="1" vertex="1">
          <mxGeometry x="-700" y="620" width="250" height="140" as="geometry" />
        </mxCell>
        <mxCell id="8_HTarOln7Qq-1XOlf3l-1" value="&lt;div style=&quot;font-size: 20px&quot;&gt;&lt;font style=&quot;font-size: 20px&quot;&gt;Execution&lt;/font&gt;&lt;/div&gt;&lt;div style=&quot;font-size: 20px&quot;&gt;&lt;font style=&quot;font-size: 20px&quot;&gt;(This is a process of implementation in programs.&lt;/font&gt;&lt;/div&gt;&lt;div style=&quot;font-size: 20px&quot;&gt;&lt;font style=&quot;font-size: 20px&quot;&gt;These can be done by both Compiler or Interpreter&lt;/font&gt;&lt;/div&gt;&lt;div style=&quot;font-size: 19px&quot;&gt;&lt;span&gt;		&lt;/span&gt; based on the language)&lt;/div&gt;" style="text;html=1;strokeColor=none;fillColor=none;align=center;verticalAlign=middle;whiteSpace=wrap;rounded=0;" parent="1" vertex="1">
          <mxGeometry x="60" y="660" width="730" height="150" as="geometry" />
        </mxCell>
        <mxCell id="X06WIJjcjNGyIG5x0vJY-1" value="&lt;font style=&quot;font-size: 20px&quot;&gt;Programming&lt;br&gt;(A set of instructions given by human to computer for desired output)&lt;/font&gt;" style="text;html=1;strokeColor=none;fillColor=none;align=center;verticalAlign=middle;whiteSpace=wrap;rounded=0;" parent="1" vertex="1">
          <mxGeometry x="210" y="220" width="400" height="160" as="geometry" />
        </mxCell>
      </root>
    </mxGraphModel>
  </diagram>
</mxfile>
